<svg width="139" height="241" viewBox="0 0 139 241" fill="black" xmlns="http://www.w3.org/2000/svg">
<path d="M125.359 0.21875H13.6406C6.53359 0.21875 0.75 6.54916 0.75 14.3281V230.794C0.75 234.359 2.55469 237.571 5.45938 239.185C8.35977 240.798 11.8059 240.487 14.4313 238.38L66.9605 196.212C68.4816 194.989 70.5312 194.989 72.0437 196.212L124.582 238.38C126.094 239.594 127.869 240.21 129.656 240.21C130.984 240.21 132.316 239.871 133.549 239.185C136.445 237.576 138.25 234.359 138.25 230.794V14.3281C138.25 6.54916 132.466 0.21875 125.359 0.21875ZM129.656 230.794L77.1184 188.626C74.841 186.796 72.1727 185.884 69.5 185.884C66.8316 185.884 64.159 186.796 61.8773 188.626L9.34375 230.794V14.3281C9.34375 11.732 11.2688 9.625 13.6406 9.625H125.359C127.731 9.625 129.656 11.732 129.656 14.3281V230.794Z"/>
<path d="M90.9844 19.0312C88.6082 19.0312 86.6875 21.1335 86.6875 23.7344V33.1406C86.6875 35.7415 88.6082 37.8438 90.9844 37.8438C93.3605 37.8438 95.2812 35.7415 95.2812 33.1406V23.7344C95.2812 21.1335 93.3605 19.0312 90.9844 19.0312ZM112.469 19.0312C110.093 19.0312 108.172 21.1335 108.172 23.7344V33.1406C108.172 35.7415 110.093 37.8438 112.469 37.8438C114.845 37.8438 116.766 35.7415 116.766 33.1406V23.7344C116.766 21.1335 114.845 19.0312 112.469 19.0312ZM26.5312 19.0312C24.1551 19.0312 22.2344 21.1335 22.2344 23.7344V33.1406C22.2344 35.7415 24.1551 37.8438 26.5312 37.8438C28.9074 37.8438 30.8281 35.7415 30.8281 33.1406V23.7344C30.8281 21.1335 28.9074 19.0312 26.5312 19.0312ZM48.0156 19.0312C45.6395 19.0312 43.7188 21.1335 43.7188 23.7344V33.1406C43.7188 35.7415 45.6395 37.8438 48.0156 37.8438C50.3918 37.8438 52.3125 35.7415 52.3125 33.1406V23.7344C52.3125 21.1335 50.3918 19.0312 48.0156 19.0312ZM69.5 19.0312C67.1238 19.0312 65.2031 21.1335 65.2031 23.7344V33.1406C65.2031 35.7415 67.1238 37.8438 69.5 37.8438C71.8762 37.8438 73.7969 35.7415 73.7969 33.1406V23.7344C73.7969 21.1335 71.8762 19.0312 69.5 19.0312Z"/>
<path d="M46 155C43.04 155 40.8 154.6 39.28 153.8C37.84 153 36.88 152.08 36.4 151.04C35.92 150 35.68 149.08 35.68 148.28C35.68 147.48 35.68 147.08 35.68 147.08L34.24 95C34.24 95 34.2 94.6 34.12 93.8C34.04 93 34.2 92.08 34.6 91.04C35 89.92 35.84 88.96 37.12 88.16C38.4 87.28 40.4 86.84 43.12 86.84C46.72 86.76 49.44 87.28 51.28 88.4C53.12 89.44 54.32 90.52 54.88 91.64C55.52 92.68 55.84 93.2 55.84 93.2L69.64 118.28C69.64 118.28 69.96 117.56 70.6 116.12C71.32 114.6 72.16 112.72 73.12 110.48C74.16 108.24 75.2 105.96 76.24 103.64C77.28 101.32 78.2 99.32 79 97.64C79.8 95.88 80.32 94.76 80.56 94.28C80.96 93.48 81.68 92.4 82.72 91.04C83.76 89.6 85.24 88.28 87.16 87.08C89.16 85.88 91.76 85.24 94.96 85.16C97.36 85.08 99.2 85.36 100.48 86C101.76 86.56 102.64 87.24 103.12 88.04C103.68 88.84 104 89.56 104.08 90.2C104.16 90.84 104.2 91.16 104.2 91.16C104.2 91.16 104.2 92.2 104.2 94.28C104.2 96.28 104.2 98.96 104.2 102.32C104.28 105.68 104.32 109.36 104.32 113.36C104.32 117.36 104.32 121.4 104.32 125.48C104.32 129.48 104.32 133.16 104.32 136.52C104.4 139.88 104.44 142.6 104.44 144.68C104.44 146.76 104.44 147.84 104.44 147.92C104.44 148 104.4 148.4 104.32 149.12C104.32 149.84 104.04 150.68 103.48 151.64C102.92 152.52 101.92 153.32 100.48 154.04C99.12 154.68 97.08 155 94.36 155C91.64 155 89.56 154.72 88.12 154.16C86.76 153.52 85.8 152.84 85.24 152.12C84.68 151.32 84.36 150.64 84.28 150.08C84.2 149.52 84.16 149.24 84.16 149.24C84.16 149.24 84.16 148.56 84.16 147.2C84.16 145.76 84.16 144 84.16 141.92C84.24 139.76 84.28 137.64 84.28 135.56C84.36 133.4 84.4 131.6 84.4 130.16C84.4 128.72 84.4 128 84.4 128L85.36 110.84L79.12 124.16C79.12 124.16 78.88 124.6 78.4 125.48C78 126.36 77.2 127.24 76 128.12C74.8 129 73 129.48 70.6 129.56C68.28 129.64 66.44 129.32 65.08 128.6C63.8 127.8 62.88 127.04 62.32 126.32C61.84 125.52 61.6 125.12 61.6 125.12L53.8 110.84C53.8 110.84 53.84 111.8 53.92 113.72C54.08 115.56 54.24 118 54.4 121.04C54.56 124 54.72 127.16 54.88 130.52C55.04 133.8 55.16 136.92 55.24 139.88C55.4 142.76 55.52 145.08 55.6 146.84C55.68 149 55.24 150.68 54.28 151.88C53.32 153 52.2 153.8 50.92 154.28C49.64 154.68 48.48 154.92 47.44 155C46.48 155 46 155 46 155Z"/>
</svg>
