<svg width="635" height="476" viewBox="0 0 635 476" fill="none" xmlns="http://www.w3.org/2000/svg">
<path d="M613.009 0H21.9913C9.84586 0 0 12.536 0 28V448C0 463.464 9.84586 476 21.9913 476H613.009C625.154 476 635 463.464 635 448V28C635 12.536 625.154 0 613.009 0Z" fill="#D8D8D8"/>
<path fill-rule="evenodd" clip-rule="evenodd" d="M0 41H635V446.528C635 462.805 625.153 476 613.004 476H21.9964C9.84811 476 0 462.803 0 446.528V41Z" fill="#F0F2F5"/>
<path d="M23.8656 29.6752C28.2097 29.6752 31.7312 26.1662 31.7312 21.8376C31.7312 17.509 28.2097 14 23.8656 14C19.5216 14 16 17.509 16 21.8376C16 26.1662 19.5216 29.6752 23.8656 29.6752Z" fill="#DF4E47"/>
<path d="M47.4625 29.6752C51.8065 29.6752 55.3281 26.1662 55.3281 21.8376C55.3281 17.509 51.8065 14 47.4625 14C43.1184 14 39.5969 17.509 39.5969 21.8376C39.5969 26.1662 43.1184 29.6752 47.4625 29.6752Z" fill="#D1A839"/>
<path d="M71.0593 29.6752C75.4034 29.6752 78.9249 26.1662 78.9249 21.8376C78.9249 17.509 75.4034 14 71.0593 14C66.7153 14 63.1937 17.509 63.1937 21.8376C63.1937 26.1662 66.7153 29.6752 71.0593 29.6752Z" fill="#34B18F"/>
</svg>
